#!OML:ASF G:\JayActor3\Patient Classification 1\Patient 1\Session 5\male.ASF
:FULLY-SPECIFIED
:DEGREES
463
root 5.33791 15.2666 -8.0121 275.833 -80.8636 76.299
lowerback 23.2668 0.278594 -0.883477
upperback 18.2434 -1.71995 -5.76344
thorax 7.28775 -1.35771 -5.67769
lowerneck -3.18466 3.09861 3.2652
upperneck 36.4353 2.30615 -1.30291
head 12.7063 0.738182 -0.956906
rclavicle 1.15295e-014 1.82882e-014
rhumerus -1.54427 3.71714 -58.0635
rradius 15.9147
rwrist 22.8453
rhand -25.6968 -32.2781
rfingers 7.12502
rthumb 0.838594 -62.2562
lclavicle 1.15295e-014 1.82882e-014
lhumerus 14.2052 -25.1575 41.0952
lradius 20.071
lwrist 0.0704715
lhand -22.7828 37.523
lfingers 7.12502
lthumb 3.65284 67.4714
rfemur -25.4196 -7.58252 7.04926
rtibia 69.2765
rfoot -32.2314 -18.2783
rtoes -8.49351
lfemur -29.5464 20.5402 -16.9199
ltibia 66.6688
lfoot -6.31274 4.22511
ltoes -12.8008
464
root 5.29977 15.3496 -8.09668 281.89 -81.2142 70.0014
lowerback 22.7819 0.184441 -0.757384
upperback 18.1385 -1.74767 -5.53604
thorax 7.39262 -1.35426 -5.49156
lowerneck -3.05079 3.1206 3.59897
upperneck 36.1435 2.27404 -1.14598
head 12.5567 0.789517 -0.956766
rclavicle -2.98177e-014 -1.86858e-014
rhumerus -1.31322 -5.16019 -58.4204
rradius 14.1947
rwrist 27.777
rhand -27.902 -31.7492
rfingers 7.12502
rthumb -1.29123 -61.7251
lclavicle -2.98177e-014 -1.86858e-014
lhumerus 14.0408 -21.9941 42.1656
lradius 18.7154
lwrist -1.2321
lhand -24.2723 37.1809
lfingers 7.12502
lthumb 2.21439 67.1492
rfemur -24.0192 -7.92543 7.99747
rtibia 67.8833
rfoot -32.2738 -18.7934
rtoes -7.73101
lfemur -30.1119 21.282 -16.2053
ltibia 67.2473
lfoot -4.31384 3.2426
ltoes -12.5295
465
root 5.26057 15.4375 -8.18155 288.473 -81.4623 63.1834
lowerback 22.2914 0.0872727 -0.628885
upperback 18.0213 -1.78073 -5.30403
thorax 7.48692 -1.35317 -5.30145
lowerneck -2.91474 3.13948 3.92932
upperneck 35.8397 2.2374 -0.977409
head 12.4027 0.838936 -0.952343
rclavicle 2.18663e-014 2.8625e-014
rhumerus -1.06072 -14.5752 -58.6587
rradius 12.7758
rwrist 33.1682
rhand -29.9635 -31.201
rfingers 7.12502
rthumb -3.28226 -61.1555
lclavicle 2.18663e-014 2.8625e-014
lhumerus 13.9674 -18.1833 43.421
lradius 17.3479
lwrist -3.07541
lhand -25.6515 36.6799
lfingers 7.12502
lthumb 0.882332 66.6578
rfemur -22.6007 -8.29648 8.95784
rtibia 66.4199
rfoot -32.2877 -19.3021
rtoes -6.96453
lfemur -30.7777 22.1186 -15.5257
ltibia 67.9238
lfoot -2.24373 2.22919
ltoes -12.2443
466
root 5.2205 15.5204 -8.26586 295.447 -81.5955 55.9786
lowerback 21.7967 -0.0127313 -0.497159
upperback 17.8921 -1.81914 -5.06667
thorax 7.57056 -1.35449 -5.10714
lowerneck -2.77389 3.15515 4.25226
upperneck 35.5216 2.19686 -0.796384
head 12.243 0.886208 -0.94262
rclavicle -1.51076e-014 -3.97569e-014
rhumerus -0.816356 -24.194 -58.7894
rradius 11.6877
rwrist 38.7258
rhand -31.8687 -30.6527
rfingers 7.12502
rthumb -5.12197 -60.5708
lclavicle -1.51076e-014 -3.97569e-014
lhumerus 14.1289 -13.1451 45.0919
lradius 15.6666
lwrist -6.10348
lhand -26.9437 35.8597
lfingers 7.12502
lthumb -0.365675 65.8392
rfemur -21.2089 -8.6935 9.9255
rtibia 64.934
rfoot -32.2722 -19.8029
rtoes -6.20542
lfemur -31.5963 23.0521 -14.882
ltibia 68.7501
lfoot -0.1105 1.18874
ltoes -11.9266
467
root 5.17947 15.6037 -8.34973 302.614 -81.6026 48.5856
lowerback 21.2991 -0.115593 -0.363171
upperback 17.7502 -1.8633 -4.82463
thorax 7.64209 -1.35853 -4.90884
lowerneck -2.6303 3.16778 4.56644
upperneck 35.1923 2.15315 -0.604652
head 12.0795 0.931154 -0.928042
rclavicle -3.10104e-014 -6.08281e-014
rhumerus -0.606931 -33.5568 -58.8168
rradius 10.936
rwrist 44.0116
rhand -33.6081 -30.1173
rfingers 7.12502
rthumb -6.80126 -59.9881
lclavicle -3.10104e-014 -6.08281e-014
lhumerus 14.4095 -7.60396 46.8675
lradius 14.2028
lwrist -9.55565
lhand -28.1318 35.0071
lfingers 7.12502
lthumb -1.51325 64.9815
rfemur -19.8196 -9.11272 10.9004
rtibia 63.3987
rfoot -32.2314 -20.2957
rtoes -5.43632
lfemur -32.5385 24.0787 -14.2864
ltibia 69.6945
lfoot 2.07434 0.137189
ltoes -11.5628
468
root 5.13754 15.6869 -8.43291 309.748 -81.4809 41.2324
lowerback 20.799 -0.221255 -0.226851
upperback 17.5952 -1.91336 -4.57802
thorax 7.70122 -1.3654 -4.70685
lowerneck -2.48429 3.17749 4.87051
upperneck 34.8528 2.10704 -0.403497
head 11.9126 0.97372 -0.90885
rclavicle 2.06736e-014 2.18663e-014
rhumerus -0.44912 -42.1888 -58.7379
rradius 10.486
rwrist 48.5665
rhand -35.1794 -29.6063
rfingers 7.12502
rthumb -8.31787 -59.4225
lclavicle 2.06736e-014 2.18663e-014
lhumerus 14.8466 -1.61687 48.7719
lradius 12.9542
lwrist -13.3925
lhand -29.2171 34.1239
lfingers 7.12502
lthumb -2.56134 64.0883
rfemur -18.4386 -9.55053 11.8821
rtibia 61.8245
rfoot -32.1722 -20.7808
rtoes -4.66073
lfemur -33.6088 25.1979 -13.7494
ltibia 70.7595
lfoot 4.29719 -0.91382
ltoes -11.2152
469
root 5.09472 15.7696 -8.51521 316.629 -81.2325 34.1377
lowerback 20.2978 -0.329885 -0.0889527
upperback 17.4275 -1.9699 -4.32728
thorax 7.74768 -1.37552 -4.5013
lowerneck -2.33665 3.18461 5.16164
upperneck 34.5046 2.05926 -0.192861
head 11.7433 1.01382 -0.884517
rclavicle 4.09496e-014 4.49253e-014
rhumerus -0.365255 -49.7266 -58.5384
rradius 10.2864
rwrist 52.0434
rhand -36.5848 -29.1201
rfingers 7.12502
rthumb -9.67407 -58.878
lclavicle 4.09496e-014 4.49253e-014
lhumerus 15.4824 4.70096 50.825
lradius 11.9123
lwrist -17.5192
lhand -30.1999 33.2227
lfingers 7.12502
lthumb -3.51049 63.1736
rfemur -17.0621 -10.0053 12.8677
rtibia 60.2028
rfoot -32.0871 -21.262
rtoes -3.88907
lfemur -34.8017 26.4047 -13.2797
ltibia 71.9322
lfoot 6.54935 -1.95407
ltoes -10.8429
470
root 5.05105 15.8516 -8.59645 323.084 -80.8684 27.4736
lowerback 19.7954 -0.440728 0.0496589
upperback 17.2466 -2.03221 -4.07143
thorax 7.78126 -1.38872 -4.29087
lowerneck -2.18517 3.18867 5.43763
upperneck 34.1465 2.01029 0.025214
head 11.5705 1.05111 -0.855459
rclavicle 7.95139e-016 1.11319e-014
rhumerus -0.38102 -55.9994 -58.1954
rradius 10.2774
rwrist 54.281
rhand -37.8349 -28.6661
rfingers 7.12502
rthumb -10.88 -58.3643
lclavicle 7.95139e-016 1.11319e-014
lhumerus 16.3613 11.197 53.0526
lradius 11.0594
lwrist -21.7964
lhand -31.0872 32.2977
lfingers 7.12502
lthumb -4.36735 62.2327
rfemur -15.6942 -10.4715 13.8582
rtibia 58.5372
rfoot -31.9757 -21.7406
rtoes -3.12206
lfemur -36.1176 27.695 -12.8853
ltibia 73.207
lfoot 8.81952 -2.96737
ltoes -10.4387
471
root 5.00676 15.9322 -8.67642 329.015 -80.4028 21.3418
lowerback 19.2931 -0.553678 0.190587
upperback 17.0518 -2.09999 -3.81053
thorax 7.8006 -1.40472 -4.07661
lowerneck -2.03178 3.18946 5.69886
upperneck 33.7813 1.96012 0.248646
head 11.396 1.0854 -0.822563
rclavicle -7.95139e-016 -1.74931e-014
rhumerus -0.52474 -61.015 -57.685
rradius 10.4089
rwrist 55.2942
rhand -38.9408 -28.2007
rfingers 7.12502
rthumb -11.9466 -57.8399
lclavicle -7.95139e-016 -1.74931e-014
lhumerus 17.5245 17.6667 55.4716
lradius 10.3746
lwrist -26.0309
lhand -31.8824 31.373
lfingers 7.12502
lthumb -5.1352 61.2907
rfemur -14.341 -10.945 14.8546
rtibia 56.8327
rfoot -31.8395 -22.2163
rtoes -2.3643
lfemur -37.5606 29.0626 -12.576
ltibia 74.5785
lfoot 11.0956 -3.93763
ltoes -9.99384
472
root 4.96172 16.0111 -8.75484 334.34 -79.847 15.8211
lowerback 18.7924 -0.668312 0.327694
upperback 16.844 -2.17376 -3.54706
thorax 7.80625 -1.42433 -3.85793
lowerneck -1.87534 3.18757 5.94223
upperneck 33.4093 1.90968 0.478356
head 11.2195 1.11678 -0.784918
rclavicle 4.33351e-014 -2.62396e-014
rhumerus -0.823673 -64.8819 -56.9875
rradius 10.6441
rwrist 55.1985
rhand -39.9135 -27.7485
rfingers 7.12502
rthumb -12.8844 -57.3308
lclavicle 4.33351e-014 -2.62396e-014
lhumerus 18.5375 20.551 56.8628
lradius 9.80931
lwrist -26.6529
lhand -32.8178 31.2951
lfingers 7.12502
lthumb -6.03835 61.189
rfemur -13.0003 -11.4243 15.8456
rtibia 55.0952
rfoot -31.6782 -22.6863
rtoes -1.62234
lfemur -39.1224 30.4983 -12.368
ltibia 76.0373
lfoot 13.3617 -4.84584
ltoes -9.50553
473
root 4.91596 16.0879 -8.83149 339.047 -79.2155 10.9237
lowerback 18.293 -0.784732 0.457702
upperback 16.6243 -2.25405 -3.28285
thorax 7.79987 -1.44811 -3.63514
lowerneck -1.71604 3.18319 6.16661
upperneck 33.03 1.85982 0.713167
head 11.0409 1.14539 -0.742721
rclavicle -7.55382e-015 3.97569e-015
rhumerus -1.28383 -67.7608 -56.1051
rradius 10.9587
rwrist 54.1583
rhand -40.7667 -27.3225
rfingers 7.12502
rthumb -13.7068 -56.851
lclavicle -7.55382e-015 3.97569e-015
lhumerus 19.6496 23.4121 58.3199
lradius 9.32481
lwrist -27.1714
lhand -33.6299 31.0846
lfingers 7.12502
lthumb -6.82229 60.9547
rfemur -11.6747 -11.9066 16.8255
rtibia 53.3319
rfoot -31.4935 -23.1489
rtoes -0.901994
lfemur -40.8006 31.9922 -12.2752
ltibia 77.5742
lfoot 15.603 -5.67496
ltoes -8.96219
474
root 4.86955 16.1621 -8.9061 343.168 -78.5241 6.61793
lowerback 17.7997 -0.903153 0.581755
upperback 16.39 -2.34071 -3.02002
thorax 7.77585 -1.47572 -3.41095
lowerneck -1.55302 3.17616 6.37197
upperneck 32.646 1.81001 0.952988
head 10.8611 1.17094 -0.696125
rclavicle 1.59028e-015 -1.27222e-014
rhumerus -1.90463 -69.8327 -55.0464
rradius 11.3364
rwrist 52.365
rhand -41.514 -26.9164
rfingers 7.12502
rthumb -14.4269 -56.395
lclavicle 1.59028e-015 -1.27222e-014
lhumerus 20.8657 26.253 59.8581
lradius 8.90676
lwrist -27.5907
lhand -34.3272 30.7267
lfingers 7.12502
lthumb -7.49542 60.5739
rfemur -10.3684 -12.3882 17.7909
rtibia 51.5508
rfoot -31.2898 -23.6
rtoes -0.198304
lfemur -42.594 33.5354 -12.3099
ltibia 79.1795
lfoot 17.8076 -6.40836
ltoes -8.35562
475
root 4.82253 16.2332 -8.97848 346.754 -77.7875 2.85231
lowerback 17.3107 -1.02294 0.69774
upperback 16.1425 -2.43309 -2.75942
thorax 7.73698 -1.50703 -3.18542
lowerneck -1.3873 3.16682 6.55692
upperneck 32.2583 1.76069 1.19781
head 10.6805 1.19353 -0.644875
rclavicle 5.1684e-015 3.65764e-014
rhumerus -2.64733 -71.2713 -53.8565
rradius 11.7676
rwrist 49.9963
rhand -42.1694 -26.5284
rfingers 7.12502
rthumb -15.0583 -55.9608
lclavicle 5.1684e-015 3.65764e-014
lhumerus 22.1956 29.0682 61.4912
lradius 8.54186
lwrist -27.9021
lhand -34.9222 30.2174
lfingers 7.12502
lthumb -8.06967 60.0433
rfemur -9.08462 -12.8657 18.7391
rtibia 49.7606
rfoot -31.0699 -24.0409
rtoes 0.48199
lfemur -44.5004 35.1161 -12.4834
ltibia 80.8431
lfoot 19.9611 -7.03024
ltoes -7.68408
476
root 4.77496 16.3006 -9.04842 349.878 -77.0174 -0.443253
lowerback 16.8248 -1.14422 0.806543
upperback 15.883 -2.53118 -2.50101
thorax 7.68546 -1.54194 -2.9592
lowerneck -1.21863 3.15483 6.72242
upperneck 31.8652 1.71237 1.4446
head 10.4986 1.21323 -0.590228
rclavicle 1.07344e-014 1.19271e-014
rhumerus -3.46044 -72.2028 -52.5913
rradius 12.248
rwrist 47.1809
rhand -42.7439 -26.1562
rfingers 7.12502
rthumb -15.6117 -55.5462
lclavicle 1.07344e-014 1.19271e-014
lhumerus 23.6489 31.8547 63.2363
lradius 8.22107
lwrist -28.0986
lhand -35.4242 29.5522
lfingers 7.12502
lthumb -8.55416 59.3589
rfemur -7.8274 -13.3369 19.6702
rtibia 47.97
rfoot -30.8406 -24.4695
rtoes 1.14285
lfemur -46.5188 36.7218 -12.8038
ltibia 82.555
lfoot 22.0519 -7.52232
ltoes -6.93532
477
root 4.72686 16.3642 -9.11569 352.59 -76.2248 -3.32013
lowerback 16.3428 -1.26582 0.907225
upperback 15.6111 -2.63331 -2.24659
thorax 7.62072 -1.57959 -2.73386
lowerneck -1.04713 3.13928 6.86998
upperneck 31.4675 1.6636 1.69262
head 10.3156 1.22953 -0.532851
rclavicle -1.23246e-014 7.95139e-016
rhumerus -4.30221 -72.7294 -51.2987
rradius 12.7768
rwrist 44.0222
rhand -43.2457 -25.7971
rfingers 7.12502
rthumb -16.0949 -55.1487
lclavicle -1.23246e-014 7.95139e-016
lhumerus 25.2359 34.6058 65.1091
lradius 7.93635
lwrist -28.1733
lhand -35.8406 28.7208
lfingers 7.12502
lthumb -8.95598 58.5107
rfemur -6.60036 -13.7986 20.58
rtibia 46.1883
rfoot -30.6029 -24.8876
rtoes 1.77524
lfemur -48.6458 38.3397 -13.2825
ltibia 84.3034
lfoot 24.069 -7.87021
ltoes -6.10101
